REM MD5 88d9aff9bda546013530ed4c0bfcf8d0
FILE "Hyper PlayStation Re-mix 1999 No. 10 (Japan).bin" BINARY
  TRACK 01 MODE2/2352
    INDEX 01 00:00:00
  TRACK 02 AUDIO
    INDEX 00 48:16:46
    INDEX 01 48:19:46
  TRACK 03 AUDIO
    INDEX 00 50:51:56
    INDEX 01 50:54:56
REM LEADOUT 54:26:46
